<svg aria-roledescription="stateDiagram" role="graphics-document document" viewBox="0 0 575.9140625 502" style="max-width: 575.914px; background-color: white;" class="statediagram" xmlns:xlink="http://www.w3.org/1999/xlink" xmlns="http://www.w3.org/2000/svg" width="100%" id="my-svg"><style>#my-svg{font-family:"trebuchet ms",verdana,arial,sans-serif;font-size:16px;fill:#333;}#my-svg .error-icon{fill:#552222;}#my-svg .error-text{fill:#552222;stroke:#552222;}#my-svg .edge-thickness-normal{stroke-width:2px;}#my-svg .edge-thickness-thick{stroke-width:3.5px;}#my-svg .edge-pattern-solid{stroke-dasharray:0;}#my-svg .edge-pattern-dashed{stroke-dasharray:3;}#my-svg .edge-pattern-dotted{stroke-dasharray:2;}#my-svg .marker{fill:#333333;stroke:#333333;}#my-svg .marker.cross{stroke:#333333;}#my-svg svg{font-family:"trebuchet ms",verdana,arial,sans-serif;font-size:16px;}#my-svg defs #statediagram-barbEnd{fill:#333333;stroke:#333333;}#my-svg g.stateGroup text{fill:#9370DB;stroke:none;font-size:10px;}#my-svg g.stateGroup text{fill:#333;stroke:none;font-size:10px;}#my-svg g.stateGroup .state-title{font-weight:bolder;fill:#131300;}#my-svg g.stateGroup rect{fill:#ECECFF;stroke:#9370DB;}#my-svg g.stateGroup line{stroke:#333333;stroke-width:1;}#my-svg .transition{stroke:#333333;stroke-width:1;fill:none;}#my-svg .stateGroup .composit{fill:white;border-bottom:1px;}#my-svg .stateGroup .alt-composit{fill:#e0e0e0;border-bottom:1px;}#my-svg .state-note{stroke:#aaaa33;fill:#fff5ad;}#my-svg .state-note text{fill:black;stroke:none;font-size:10px;}#my-svg .stateLabel .box{stroke:none;stroke-width:0;fill:#ECECFF;opacity:0.5;}#my-svg .edgeLabel .label rect{fill:#ECECFF;opacity:0.5;}#my-svg .edgeLabel .label text{fill:#333;}#my-svg .label div .edgeLabel{color:#333;}#my-svg .stateLabel text{fill:#131300;font-size:10px;font-weight:bold;}#my-svg .node circle.state-start{fill:#333333;stroke:#333333;}#my-svg .node .fork-join{fill:#333333;stroke:#333333;}#my-svg .node circle.state-end{fill:#9370DB;stroke:white;stroke-width:1.5;}#my-svg .end-state-inner{fill:white;stroke-width:1.5;}#my-svg .node rect{fill:#ECECFF;stroke:#9370DB;stroke-width:1px;}#my-svg .node polygon{fill:#ECECFF;stroke:#9370DB;stroke-width:1px;}#my-svg #statediagram-barbEnd{fill:#333333;}#my-svg .statediagram-cluster rect{fill:#ECECFF;stroke:#9370DB;stroke-width:1px;}#my-svg .cluster-label,#my-svg .nodeLabel{color:#131300;}#my-svg .statediagram-cluster rect.outer{rx:5px;ry:5px;}#my-svg .statediagram-state .divider{stroke:#9370DB;}#my-svg .statediagram-state .title-state{rx:5px;ry:5px;}#my-svg .statediagram-cluster.statediagram-cluster .inner{fill:white;}#my-svg .statediagram-cluster.statediagram-cluster-alt .inner{fill:#f0f0f0;}#my-svg .statediagram-cluster .inner{rx:0;ry:0;}#my-svg .statediagram-state rect.basic{rx:5px;ry:5px;}#my-svg .statediagram-state rect.divider{stroke-dasharray:10,10;fill:#f0f0f0;}#my-svg .note-edge{stroke-dasharray:5;}#my-svg .statediagram-note rect{fill:#fff5ad;stroke:#aaaa33;stroke-width:1px;rx:0;ry:0;}#my-svg .statediagram-note rect{fill:#fff5ad;stroke:#aaaa33;stroke-width:1px;rx:0;ry:0;}#my-svg .statediagram-note text{fill:black;}#my-svg .statediagram-note .nodeLabel{color:black;}#my-svg .statediagram .edgeLabel{color:red;}#my-svg #dependencyStart,#my-svg #dependencyEnd{fill:#333333;stroke:#333333;stroke-width:1;}#my-svg .statediagramTitleText{text-anchor:middle;font-size:18px;fill:#333;}#my-svg :root{--mermaid-font-family:"trebuchet ms",verdana,arial,sans-serif;}</style><g><defs><marker orient="auto" markerUnits="strokeWidth" markerHeight="14" markerWidth="20" refY="7" refX="19" id="my-svg_statediagram-barbEnd"><path d="M 19,7 L9,13 L14,7 L9,1 Z"/></marker></defs><g class="root"><g class="clusters"/><g class="edgePaths"><path marker-end="url(#my-svg_statediagram-barbEnd)" style="fill:none" class="edge-thickness-normal transition" id="edge0" d="M286.953,22L286.953,29.333C286.953,36.667,286.953,51.333,286.953,66C286.953,80.667,286.953,95.333,286.953,102.667L286.953,110"/><path marker-end="url(#my-svg_statediagram-barbEnd)" style="fill:none" class="edge-thickness-normal transition" id="edge1" d="M286.953,144L286.953,151.333C286.953,158.667,286.953,173.333,286.953,191.167C286.953,209,286.953,230,286.953,251C286.953,272,286.953,293,297.144,310.833C307.335,328.667,327.717,343.333,337.907,350.667L348.098,358"/><path marker-end="url(#my-svg_statediagram-barbEnd)" style="fill:none" class="edge-thickness-normal transition" id="edge2" d="M330.742,142.755L351.701,150.296C372.659,157.837,414.576,172.918,435.534,188.126C456.492,203.333,456.492,218.667,456.492,226.333L456.492,234"/><path marker-end="url(#my-svg_statediagram-barbEnd)" style="fill:none" class="edge-thickness-normal transition" id="edge3" d="M243.164,141.803L220.388,149.503C197.612,157.202,152.06,172.601,129.284,190.801C106.508,209,106.508,230,106.508,251C106.508,272,106.508,293,106.508,310.833C106.508,328.667,106.508,343.333,106.508,350.667L106.508,358"/><path marker-end="url(#my-svg_statediagram-barbEnd)" style="fill:none" class="edge-thickness-normal transition" id="edge4" d="M456.492,268L456.492,275.667C456.492,283.333,456.492,298.667,446.301,313.667C436.11,328.667,415.729,343.333,405.538,350.667L395.347,358"/><path marker-end="url(#my-svg_statediagram-barbEnd)" style="fill:none" class="edge-thickness-normal transition" id="edge5" d="M106.508,392L106.508,399.333C106.508,406.667,106.508,421.333,134.553,436.84C162.598,452.347,218.689,468.694,246.734,476.868L274.78,485.041"/><path marker-end="url(#my-svg_statediagram-barbEnd)" style="fill:none" class="edge-thickness-normal transition" id="edge6" d="M371.723,392L371.723,399.333C371.723,406.667,371.723,421.333,357.701,436.593C343.68,451.852,315.637,467.704,301.615,475.629L287.594,483.555"/></g><g class="edgeLabels"><g transform="translate(286.953125, 66)" class="edgeLabel"><g transform="translate(-185.765625, -19)" class="label"><rect height="38" width="371.53125" ry="0" rx="0"/><foreignObject height="38" width="371.53125"><div style="display: inline-block; white-space: nowrap;" xmlns="http://www.w3.org/1999/xhtml"><span class="edgeLabel">open — replay audit rows,<br />compare manifest anchor vs chain_meta head</span></div></foreignObject></g></g><g transform="translate(286.953125, 251)" class="edgeLabel"><g transform="translate(-78.7890625, -9.5)" class="label"><rect height="19" width="157.578125" ry="0" rx="0"/><foreignObject height="19" width="157.578125"><div style="display: inline-block; white-space: nowrap;" xmlns="http://www.w3.org/1999/xhtml"><span class="edgeLabel">anchor == db head</span></div></foreignObject></g></g><g transform="translate(456.4921875, 188)" class="edgeLabel"><g transform="translate(-90.8203125, -19)" class="label"><rect height="38" width="181.640625" ry="0" rx="0"/><foreignObject height="38" width="181.640625"><div style="display: inline-block; white-space: nowrap;" xmlns="http://www.w3.org/1999/xhtml"><span class="edgeLabel">anchor appears earlier<br />in the replayed chain</span></div></foreignObject></g></g><g transform="translate(106.5078125, 251)" class="edgeLabel"><g transform="translate(-81.65625, -19)" class="label"><rect height="38" width="163.3125" ry="0" rx="0"/><foreignObject height="38" width="163.3125"><div style="display: inline-block; white-space: nowrap;" xmlns="http://www.w3.org/1999/xhtml"><span class="edgeLabel">anchor not in the<br />replayed chain at all</span></div></foreignObject></g></g><g transform="translate(456.4921875, 314)" class="edgeLabel"><g transform="translate(-111.421875, -19)" class="label"><rect height="38" width="222.84375" ry="0" rx="0"/><foreignObject height="38" width="222.84375"><div style="display: inline-block; white-space: nowrap;" xmlns="http://www.w3.org/1999/xhtml"><span class="edgeLabel">crash artifact —<br />anchor silently re-advanced</span></div></foreignObject></g></g><g transform="translate(106.5078125, 436)" class="edgeLabel"><g transform="translate(-98.5078125, -19)" class="label"><rect height="38" width="197.015625" ry="0" rx="0"/><foreignObject height="38" width="197.015625"><div style="display: inline-block; white-space: nowrap;" xmlns="http://www.w3.org/1999/xhtml"><span class="edgeLabel">ManifestTampered —<br />rollback or fork detected</span></div></foreignObject></g></g><g class="edgeLabel"><g transform="translate(0, 0)" class="label"><rect height="0" width="0" ry="0" rx="0"/><foreignObject height="0" width="0"><div style="display: inline-block; white-space: nowrap;" xmlns="http://www.w3.org/1999/xhtml"><span class="edgeLabel"></span></div></foreignObject></g></g></g><g class="nodes"><g transform="translate(286.953125, 15)" data-id="root_start" data-node="true" id="state-root_start-0" class="node default"><circle height="14" width="14" r="7" class="state-start"/></g><g transform="translate(286.953125, 127)" data-id="Compare" data-node="true" id="state-Compare-3" class="node  statediagram-state undefined"><rect height="34" width="87.578125" y="-17" x="-43.7890625" style="" class="basic label-container"/><g transform="translate(-36.2890625, -9.5)" style="" class="label"><rect/><foreignObject height="19" width="72.578125"><div style="display: inline-block; white-space: nowrap;" xmlns="http://www.w3.org/1999/xhtml"><span class="nodeLabel">Compare</span></div></foreignObject></g></g><g transform="translate(371.72265625, 375)" data-id="Clean" data-node="true" id="state-Clean-6" class="node  statediagram-state undefined"><rect height="34" width="60.40625" y="-17" x="-30.203125" style="" class="basic label-container"/><g transform="translate(-22.703125, -9.5)" style="" class="label"><rect/><foreignObject height="19" width="45.40625"><div style="display: inline-block; white-space: nowrap;" xmlns="http://www.w3.org/1999/xhtml"><span class="nodeLabel">Clean</span></div></foreignObject></g></g><g transform="translate(456.4921875, 251)" data-id="FastForward" data-node="true" id="state-FastForward-4" class="node  statediagram-state undefined"><rect height="34" width="111.5" y="-17" x="-55.75" style="" class="basic label-container"/><g transform="translate(-48.25, -9.5)" style="" class="label"><rect/><foreignObject height="19" width="96.5"><div style="display: inline-block; white-space: nowrap;" xmlns="http://www.w3.org/1999/xhtml"><span class="nodeLabel">FastForward</span></div></foreignObject></g></g><g transform="translate(106.5078125, 375)" data-id="Tampered" data-node="true" id="state-Tampered-5" class="node  statediagram-state undefined"><rect height="34" width="93.75" y="-17" x="-46.875" style="" class="basic label-container"/><g transform="translate(-39.375, -9.5)" style="" class="label"><rect/><foreignObject height="19" width="78.75"><div style="display: inline-block; white-space: nowrap;" xmlns="http://www.w3.org/1999/xhtml"><span class="nodeLabel">Tampered</span></div></foreignObject></g></g><g transform="translate(281.5, 487)" data-id="root_end" data-node="true" id="state-root_end-6" class="node default"><circle height="14" width="14" r="7" class="state-start"/><circle height="10" width="10" r="5" class="state-end"/></g></g></g></g></svg>